# xmcd CD database file
#
# Track frame offsets:
#	150
#	18974
#	34859
#	54677
#	76747
#	93698
#	113746
#	137165
#	156216
#	174071
#	189836
#	207994
#	223608
#	241943
#	260959
#
# Disc length: 3924 seconds
#
# Revision: 1
# Processed by: cddbd v1.5.2PL0 Copyright (c) Steve Scherf et al.
# Submitted via: CDex 1.51
#
DISCID=c90f520f
DTITLE=Various Artist - STTW-3180
DYEAR=1900
DGENRE=Blues
TTITLE0=Taylor Swift - Love Story
TTITLE1=Colbie Caillat - Bubbly
TTITLE2=Katy Perry - Thinking Of You
TTITLE3=Duffy - Rockferry
TTITLE4=Mariah Carey - Touch My Body
TTITLE5=Girls Aloud - The Loving Kind
TTITLE6=Rihanna - Rehab
TTITLE7=Lady Gaga - Poker Face
TTITLE8=Shaleen Spiteri - All The Times I Cried
TTITLE9=Sugababes - Girls
TTITLE10=katy Perry - Hot N Cold
TTITLE11=Miley Cyrus - See You Again
TTITLE12=Pussycat Dolls The Ft Missy Elliott - Whatcha Think About That
TTITLE13=Shontelle - T-Shirt
TTITLE14=Girls Aloud - Untouchable
EXTD=
EXTT0=
EXTT1=
EXTT2=
EXTT3=
EXTT4=
EXTT5=
EXTT6=
EXTT7=
EXTT8=
EXTT9=
EXTT10=
EXTT11=
EXTT12=
EXTT13=
EXTT14=
PLAYORDER=
